<svg width="57" height="57" viewBox="0 0 57 57" fill="none" xmlns="http://www.w3.org/2000/svg">
<rect x="0.608398" y="0.0625" width="56" height="56" rx="28" fill="white" fill-opacity="0.2"/>
<path d="M39.8061 32.3516C39.8065 32.3472 39.8065 32.3428 39.8061 32.3384L38.2695 24.4475C38.2695 24.4419 38.2695 24.4363 38.2695 24.4306C38.0323 23.1351 37.3486 21.9636 36.3372 21.1199C35.3258 20.2761 34.0507 19.8135 32.7336 19.8125H24.4733C23.1525 19.812 21.8738 20.2772 20.8621 21.1263C19.8504 21.9755 19.1705 23.1541 18.942 24.455L17.413 32.3384C17.4125 32.3428 17.4125 32.3472 17.413 32.3516C17.2885 33.0583 17.3925 33.7863 17.71 34.4298C18.0274 35.0734 18.5417 35.599 19.1781 35.9304C19.8146 36.2618 20.5401 36.3818 21.2494 36.2728C21.9587 36.1638 22.6147 35.8316 23.1223 35.3244L23.1552 35.2897L26.8761 31.0625H30.3448L34.0677 35.2897C34.078 35.3019 34.0892 35.3131 34.1005 35.3244C34.7331 35.9557 35.5899 36.3109 36.4836 36.3125C36.9762 36.3122 37.4628 36.204 37.9092 35.9956C38.3556 35.7872 38.7509 35.4836 39.0675 35.1061C39.384 34.7286 39.6141 34.2864 39.7415 33.8106C39.869 33.3347 39.8907 32.8367 39.8052 32.3516H39.8061ZM26.3586 26.5625H25.6086V27.3125C25.6086 27.5114 25.5296 27.7022 25.3889 27.8428C25.2483 27.9835 25.0575 28.0625 24.8586 28.0625C24.6597 28.0625 24.4689 27.9835 24.3283 27.8428C24.1876 27.7022 24.1086 27.5114 24.1086 27.3125V26.5625H23.3586C23.1597 26.5625 22.9689 26.4835 22.8283 26.3428C22.6876 26.2022 22.6086 26.0114 22.6086 25.8125C22.6086 25.6136 22.6876 25.4228 22.8283 25.2822C22.9689 25.1415 23.1597 25.0625 23.3586 25.0625H24.1086V24.3125C24.1086 24.1136 24.1876 23.9228 24.3283 23.7822C24.4689 23.6415 24.6597 23.5625 24.8586 23.5625C25.0575 23.5625 25.2483 23.6415 25.3889 23.7822C25.5296 23.9228 25.6086 24.1136 25.6086 24.3125V25.0625H26.3586C26.5575 25.0625 26.7483 25.1415 26.8889 25.2822C27.0296 25.4228 27.1086 25.6136 27.1086 25.8125C27.1086 26.0114 27.0296 26.2022 26.8889 26.3428C26.7483 26.4835 26.5575 26.5625 26.3586 26.5625ZM30.1086 25.8125C30.1086 25.6136 30.1876 25.4228 30.3283 25.2822C30.4689 25.1415 30.6597 25.0625 30.8586 25.0625H33.1086C33.3075 25.0625 33.4983 25.1415 33.6389 25.2822C33.7796 25.4228 33.8586 25.6136 33.8586 25.8125C33.8586 26.0114 33.7796 26.2022 33.6389 26.3428C33.4983 26.4835 33.3075 26.5625 33.1086 26.5625H30.8586C30.6597 26.5625 30.4689 26.4835 30.3283 26.3428C30.1876 26.2022 30.1086 26.0114 30.1086 25.8125ZM38.0183 34.0128C37.8778 34.2151 37.6986 34.3874 37.491 34.5199C37.2834 34.6523 37.0515 34.7422 36.8089 34.7844C36.5154 34.8357 36.2139 34.8167 35.9292 34.7288C35.6445 34.641 35.3847 34.4868 35.1711 34.2791L32.3398 31.0625H32.7336C33.6911 31.0626 34.6328 30.8183 35.4695 30.3527C36.3062 29.8871 37.0102 29.2156 37.5148 28.4019L38.3342 32.6206C38.3759 32.862 38.3695 33.1093 38.3153 33.3483C38.2611 33.5872 38.1601 33.813 38.0183 34.0128Z" fill="white"/>
</svg>
