<svg width="41" height="41" viewBox="0 0 41 41" fill="none" xmlns="http://www.w3.org/2000/svg">
<path d="M20.5254 0.925781C16.5698 0.925781 12.703 2.09876 9.41399 4.29639C6.12501 6.49402 3.56156 9.61759 2.04781 13.2721C0.534056 16.9266 0.13799 20.948 0.909694 24.8276C1.6814 28.7072 3.58621 32.2709 6.38326 35.0679C9.18031 37.865 12.744 39.7698 16.6236 40.5415C20.5032 41.3132 24.5245 40.9171 28.1791 39.4034C31.8336 37.8896 34.9572 35.3262 37.1548 32.0372C39.3524 28.7482 40.5254 24.8814 40.5254 20.9258C40.5198 15.6232 38.4109 10.5393 34.6613 6.78983C30.9118 3.04032 25.828 0.931381 20.5254 0.925781ZM10.1562 34.2912C11.2691 32.5506 12.8023 31.1181 14.6145 30.1259C16.4266 29.1337 18.4594 28.6136 20.5254 28.6136C22.5914 28.6136 24.6242 29.1337 26.4363 30.1259C28.2485 31.1181 29.7817 32.5506 30.8946 34.2912C27.9299 36.5969 24.2812 37.8487 20.5254 37.8487C16.7696 37.8487 13.1209 36.5969 10.1562 34.2912ZM14.3716 19.3873C14.3716 18.1702 14.7325 16.9804 15.4087 15.9684C16.0849 14.9564 17.046 14.1677 18.1704 13.7019C19.2949 13.2361 20.5322 13.1143 21.726 13.3517C22.9197 13.5892 24.0162 14.1753 24.8768 15.0359C25.7374 15.8965 26.3235 16.993 26.561 18.1868C26.7984 19.3805 26.6766 20.6178 26.2108 21.7423C25.745 22.8668 24.9563 23.8279 23.9443 24.5041C22.9323 25.1802 21.7425 25.5412 20.5254 25.5412C18.8933 25.5412 17.328 24.8928 16.174 23.7387C15.0199 22.5847 14.3716 21.0194 14.3716 19.3873ZM33.1715 32.1585C31.4557 29.6721 29.0431 27.7485 26.2369 26.6296C27.7443 25.4424 28.8442 23.815 29.3837 21.9737C29.9232 20.1323 29.8756 18.1686 29.2473 16.3557C28.6191 14.5427 27.4415 12.9706 25.8784 11.8579C24.3152 10.7452 22.4441 10.1473 20.5254 10.1473C18.6067 10.1473 16.7356 10.7452 15.1724 11.8579C13.6093 12.9706 12.4317 14.5427 11.8034 16.3557C11.1752 18.1686 11.1275 20.1323 11.6671 21.9737C12.2066 23.815 13.3065 25.4424 14.8139 26.6296C12.0077 27.7485 9.59507 29.6721 7.87924 32.1585C5.71111 29.7203 4.294 26.7074 3.79856 23.4825C3.30313 20.2576 3.75049 16.9583 5.08678 13.9817C6.42307 11.0052 8.59131 8.47843 11.3304 6.70566C14.0695 4.93289 17.2627 3.98972 20.5254 3.98972C23.7881 3.98972 26.9813 4.93289 29.7204 6.70566C32.4595 8.47843 34.6277 11.0052 35.964 13.9817C37.3003 16.9583 37.7477 20.2576 37.2522 23.4825C36.7568 26.7074 35.3397 29.7203 33.1715 32.1585Z" fill="black"/>
</svg>
