<svg width="27" height="27" viewBox="0 0 27 27" fill="none" xmlns="http://www.w3.org/2000/svg">
<path d="M13.5254 7.92584C12.3388 7.92584 11.1787 8.27773 10.192 8.93702C9.20533 9.59631 8.4363 10.5334 7.98217 11.6297C7.52805 12.7261 7.40923 13.9325 7.64074 15.0964C7.87225 16.2603 8.44369 17.3294 9.28281 18.1685C10.1219 19.0076 11.191 19.579 12.3549 19.8106C13.5188 20.0421 14.7252 19.9232 15.8216 19.4691C16.9179 19.015 17.855 18.246 18.5143 17.2593C19.1736 16.2726 19.5254 15.1125 19.5254 13.9258C19.5238 12.335 18.8911 10.8099 17.7663 9.68503C16.6414 8.56017 15.1162 7.92749 13.5254 7.92584ZM13.5254 17.9258C12.7343 17.9258 11.961 17.6912 11.3032 17.2517C10.6454 16.8122 10.1327 16.1875 9.82993 15.4566C9.52718 14.7257 9.44797 13.9214 9.60231 13.1455C9.75665 12.3696 10.1376 11.6568 10.697 11.0974C11.2564 10.538 11.9692 10.157 12.7451 10.0027C13.521 9.84836 14.3253 9.92757 15.0562 10.2303C15.7871 10.5331 16.4118 11.0458 16.8513 11.7036C17.2909 12.3614 17.5254 13.1347 17.5254 13.9258C17.5254 14.9867 17.104 16.0041 16.3539 16.7543C15.6037 17.5044 14.5863 17.9258 13.5254 17.9258ZM24.5255 14.1958C24.5305 14.0158 24.5305 13.8358 24.5255 13.6558L26.3905 11.3258C26.4882 11.2035 26.5559 11.0599 26.5881 10.9066C26.6202 10.7533 26.6159 10.5946 26.5755 10.4433C26.2697 9.29409 25.8124 8.19065 25.2155 7.16209C25.1373 7.02749 25.0288 6.91299 24.8986 6.8277C24.7684 6.74242 24.6201 6.68871 24.4655 6.67084L21.5005 6.34084C21.3771 6.21084 21.2521 6.08584 21.1255 5.96584L20.7754 2.99334C20.7574 2.8386 20.7035 2.69021 20.618 2.56C20.5325 2.42979 20.4178 2.32135 20.2829 2.24334C19.254 1.64752 18.1506 1.19063 17.0017 0.884588C16.8503 0.844334 16.6915 0.840217 16.5383 0.872569C16.385 0.90492 16.2414 0.972835 16.1192 1.07084L13.7955 2.92584C13.6154 2.92584 13.4354 2.92584 13.2554 2.92584L10.9254 1.06459C10.8031 0.966799 10.6595 0.899111 10.5062 0.866977C10.3529 0.834844 10.1943 0.839163 10.0429 0.879588C8.89389 1.18587 7.79052 1.64319 6.7617 2.23959C6.6271 2.31775 6.5126 2.42625 6.42731 2.55645C6.34203 2.68665 6.28831 2.83497 6.27045 2.98959L5.94045 5.95959C5.81045 6.08376 5.68545 6.20876 5.56545 6.33459L2.59295 6.67584C2.43821 6.69384 2.28982 6.74774 2.15961 6.83325C2.0294 6.91876 1.92096 7.0335 1.84295 7.16834C1.24713 8.19729 0.790241 9.30064 0.484198 10.4496C0.443944 10.601 0.439827 10.7597 0.472178 10.913C0.504529 11.0663 0.572444 11.2099 0.670448 11.3321L2.52545 13.6558C2.52545 13.8358 2.52545 14.0158 2.52545 14.1958L0.664198 16.5258C0.566408 16.6482 0.49872 16.7918 0.466587 16.9451C0.434453 17.0983 0.438773 17.257 0.479198 17.4083C0.784935 18.5576 1.24228 19.661 1.8392 20.6896C1.91736 20.8242 2.02585 20.9387 2.15606 21.024C2.28626 21.1093 2.43458 21.163 2.5892 21.1808L5.5542 21.5108C5.67837 21.6408 5.80337 21.7658 5.9292 21.8858L6.27545 24.8583C6.29345 25.0131 6.34735 25.1615 6.43286 25.2917C6.51837 25.4219 6.63311 25.5303 6.76795 25.6083C7.7969 26.2042 8.90025 26.661 10.0492 26.9671C10.2006 27.0073 10.3594 27.0115 10.5126 26.9791C10.6659 26.9468 10.8095 26.8788 10.9317 26.7808L13.2554 24.9258C13.4354 24.9308 13.6154 24.9308 13.7955 24.9258L16.1255 26.7908C16.2478 26.8886 16.3914 26.9563 16.5447 26.9885C16.698 27.0206 16.8566 27.0163 17.0079 26.9758C18.1572 26.6701 19.2606 26.2128 20.2892 25.6158C20.4238 25.5377 20.5383 25.4292 20.6236 25.299C20.7089 25.1688 20.7626 25.0205 20.7804 24.8658L21.1104 21.9008C21.2404 21.7775 21.3654 21.6525 21.4854 21.5258L24.458 21.1758C24.6127 21.1578 24.7611 21.1039 24.8913 21.0184C25.0215 20.9329 25.1299 20.8182 25.208 20.6833C25.8038 19.6544 26.2607 18.551 26.5667 17.4021C26.607 17.2507 26.6111 17.0919 26.5787 16.9387C26.5464 16.7854 26.4785 16.6418 26.3805 16.5196L24.5255 14.1958ZM22.5129 13.3833C22.5342 13.7447 22.5342 14.107 22.5129 14.4683C22.4981 14.7157 22.5756 14.9599 22.7304 15.1533L24.5042 17.3696C24.3007 18.0164 24.0401 18.6439 23.7255 19.2446L20.9004 19.5646C20.6544 19.5919 20.4273 19.7095 20.2629 19.8946C20.0223 20.1652 19.7661 20.4215 19.4954 20.6621C19.3103 20.8264 19.1928 21.0536 19.1654 21.2996L18.8517 24.1221C18.2511 24.4369 17.6236 24.6975 16.9767 24.9008L14.7592 23.1271C14.5818 22.9853 14.3613 22.9082 14.1342 22.9083H14.0742C13.7128 22.9296 13.3506 22.9296 12.9892 22.9083C12.7418 22.8934 12.4977 22.971 12.3042 23.1258L10.0817 24.9008C9.43486 24.6973 8.8074 24.4367 8.2067 24.1221L7.8867 21.3008C7.85939 21.0548 7.74181 20.8277 7.5567 20.6633C7.28608 20.4227 7.02981 20.1665 6.7892 19.8958C6.62487 19.7107 6.39772 19.5931 6.1517 19.5658L3.3292 19.2508C3.01444 18.6502 2.75382 18.0227 2.55045 17.3758L4.3242 15.1583C4.47908 14.9648 4.55659 14.7207 4.5417 14.4733C4.52045 14.112 4.52045 13.7497 4.5417 13.3883C4.55659 13.1409 4.47908 12.8968 4.3242 12.7033L2.55045 10.4821C2.75398 9.83526 3.01459 9.20779 3.3292 8.60709L6.15045 8.28709C6.39647 8.25978 6.62361 8.1422 6.78795 7.95709C7.02856 7.68648 7.28483 7.4302 7.55545 7.18959C7.74129 7.02515 7.85936 6.79748 7.8867 6.55084L8.20045 3.72959C8.80108 3.41483 9.42856 3.15421 10.0754 2.95084L12.2929 4.72459C12.4864 4.87947 12.7306 4.95698 12.978 4.94209C13.3393 4.92084 13.7016 4.92084 14.063 4.94209C14.3103 4.95698 14.5545 4.87947 14.7479 4.72459L16.9692 2.95084C17.616 3.15437 18.2435 3.41498 18.8442 3.72959L19.1642 6.55084C19.1915 6.79686 19.3091 7.02401 19.4942 7.18834C19.7648 7.42895 20.0211 7.68523 20.2617 7.95584C20.426 8.14095 20.6532 8.25853 20.8992 8.28584L23.7217 8.59959C24.0365 9.20022 24.2971 9.8277 24.5005 10.4746L22.7267 12.6921C22.5703 12.8872 22.4927 13.1338 22.5092 13.3833H22.5129Z" fill="black"/>
</svg>
